<?xml version="1.0" encoding="UTF-8"?>
<!-- Do not edit this file with editors other than diagrams.net -->
<!DOCTYPE svg PUBLIC "-//W3C//DTD SVG 1.1//EN" "http://www.w3.org/Graphics/SVG/1.1/DTD/svg11.dtd">
<svg xmlns="http://www.w3.org/2000/svg" xmlns:xlink="http://www.w3.org/1999/xlink" version="1.1" width="662px" height="271px" viewBox="-0.5 -0.5 662 271" content="&lt;mxfile host=&quot;Electron&quot; modified=&quot;2023-05-29T05:42:40.675Z&quot; agent=&quot;Mozilla/5.0 (Macintosh; Intel Mac OS X 10_15_7) AppleWebKit/537.36 (KHTML, like Gecko) draw.io/21.2.8 Chrome/112.0.5615.165 Electron/24.2.0 Safari/537.36&quot; version=&quot;21.2.8&quot; etag=&quot;yLt18cnLnTnhMuPKVTFn&quot; type=&quot;device&quot;&gt;&lt;diagram name=&quot;페이지-1&quot; id=&quot;GmGQ8r6swwX8mwVwfZrx&quot;&gt;5VrbbuM2EP0avgoSdSMfLdu7LbCLDRAUbR8Vi7HVyqJB04ndry8pUTeTchRHTpRdI0DI4UXkzDkzHErAnW+PX1m823ynCckAtJMjcBcAQse2PfFPSk6lJECoFKxZmqhOjeA+/Y9UI5X0kCZk3+nIKc14uusKVzTPyYp3ZDFj9Lnb7ZFm3afu4jXRBPerONOlf6YJ35RSBMNG/htJ15vqyU6Ay5ZtXHVWO9lv4oQ+t0TuErhzRikvS9vjnGRSeZVeynFfelrrhTGS8yEDYDngKc4Oam9qXfxUbfZ5k3Jyv4tXsv4sDArcaMO3mag5ovhIc64s5ASivueM/kvmNKNMiHKai5ZIPYUwTo69K3Xq/QvgELolnJ1EFzXAUxpTkHFtWwmeGwsEgZJtWtqHoRLGyurreu5GMaKgdGPWk6uphSQCEqqqdrk6sCeSKL0wesiTomaLGmV8Q9c0j7NvlO5Ul38I5yelu/jAab9iYaHYmFUCJOokT1q1cn1yUR397umBrZRIkU5MsyZKN8FgKzCSxTx96s7+Fo16OvKWczDzALLBMgIRBkh0EeUFQA7AtmaAV+ASjgNBhC0cnqHQxVag4dCBBhx6I8DQf5muawG8Xe9mlUeMH6ru9muV4LoGLdiBFeLmF+rMNCgk9CxkNz8HvV0/wcv62dE054Qtn8R+9wortReWVE3i/abmbQtQRsf2mGZZJQLQ9TzsF52z+IFkd3Sf8pTmom1F5ENFg7RJKiLJt7MOD5Rzum11mGXpWjZw6S6iWNXqeeiBZ2kullNFOLvcx05uc3tcy8BrPRESb63V7mDw04P44F+EQmgFLfvZlZOsUaGhwBMWNxCjlr7F9KFm+vndH5r1xWZ5ny01HbeNq/q08HBuqG2aJPIxkckxdaPBVb6pxxYvkMwdweugnyD4YT34VQ7nI6If1tD6uxjyowh4c4BnAHuyEEEwW0wg8gm/pjl9x9MJfrPA5+jx//Nh0KlylRYIXxGARwdhtZ6zMxheyuOWKKAI4IU6gwk8ivOYOJjNxGFsXrR6IEJFYSaPbSVykSuHqFZHs9lEkIveE7n6EeQTItc1IBeOj1w19E6e0Vo2dHQbarYpl6ZGnpmnXsowi7lmWiwKvC8KaBc5Cv4CokUhmckmWAjRvMhgCkk0hazFxIDa7bwLAwyp3iVKNIBfNtJraHD50HWZFEK57PSXmqio/C3nsfyqujiqecvaSdUGkCnQuYQHG9VksLfSC0HLDVuJWBcrto8tH3v1X3f6cmMa7bSH+LZAYdDKEc9csswqWz9/ELlnjMWnVrcit9v379THhtzVx5cXbhjjBJ1bNVEoV3K1xxmQ1//iDHGG+72flSLIttrp9rQpAu2RKTLgaudXp4g7cYoEb+BF3wFmqvD3RoZ/eBHtN8ki+tALX4Lv+OkH0tFevUD4kMQZac6oub7RU4BJvcSAwcCrHO9W6QCeDpTfHcmV25oKkqv1jHgFNIMA+UU3VzLhs1LCdEd0K0pA/abswygRvj8n4MQ4Ac2cuO7+Z/JIN94F3Qzplz+kMJ/ap3cfavqW4gaIveoIa7ru6yZjQ4Y05/WxjrCGLz4677xwFV3KsBFk8kXtAxOltSyNHZaM8w+juGhSDyrednw8rQ0fpgx+O+ecZ1JX0fqVF1gqor1zOt4JoD0s/5jkuSfttM7ueIZmzIHpSyV9ulfnzMNfqohq8xFj2b35FNRd/g8=&lt;/diagram&gt;&lt;/mxfile&gt;"><defs/><g><rect x="0" y="0" width="660" height="270" fill="rgb(255, 255, 255)" stroke="none" pointer-events="all"/><path d="M 169.97 59.49 Q 169.97 59.49 299.7 59.26" fill="none" stroke="rgb(0, 0, 0)" stroke-miterlimit="10" pointer-events="stroke"/><path d="M 306.45 59.24 L 297.46 63.76 L 299.7 59.26 L 297.44 54.76 Z" fill="rgb(0, 0, 0)" stroke="rgb(0, 0, 0)" stroke-miterlimit="10" pointer-events="all"/><rect x="49.97" y="39.6" width="120" height="40" fill="rgb(255, 255, 255)" stroke="rgb(0, 0, 0)" pointer-events="all"/><g transform="translate(-0.5 -0.5)scale(0.9999999999999999)"><switch><foreignObject pointer-events="none" width="101%" height="101%" requiredFeatures="http://www.w3.org/TR/SVG11/feature#Extensibility" style="overflow: visible; text-align: left;"><div xmlns="http://www.w3.org/1999/xhtml" style="display: flex; align-items: unsafe center; justify-content: unsafe center; width: 118px; height: 1px; padding-top: 60px; margin-left: 51px;"><div data-drawio-colors="color: rgb(0, 0, 0); " style="box-sizing: border-box; font-size: 0px; text-align: center;"><div style="display: inline-block; font-size: 12px; font-family: Helvetica; color: rgb(0, 0, 0); line-height: 1.2; pointer-events: all; white-space: normal; overflow-wrap: normal;">준비 큐</div></div></div></foreignObject><text x="110" y="63" fill="rgb(0, 0, 0)" font-family="Helvetica" font-size="12px" text-anchor="middle">준비 큐</text></switch></g><path d="M 336.79 68.49 C 335.24 68.49 334.13 67.26 334.13 65.86 C 334.13 64.76 335.09 63.33 336.79 63.33 C 338.01 63.33 339.29 64.25 339.29 65.86 C 339.29 67.26 338.25 68.49 336.79 68.49 L 336.79 68.49 Z M 342.19 71.42 L 342.19 46.88 L 318.04 46.88 L 318.04 71.42 L 342.19 71.42 Z M 317.27 74.19 C 316.23 74.19 315.27 73.51 315.27 72.21 L 315.27 46.11 C 315.27 44.69 316.37 44.11 317.23 44.11 L 342.97 44.11 C 344.16 44.11 344.94 44.9 344.94 46.13 L 344.94 72.07 C 344.96 73.4 344.19 74.19 342.86 74.19 L 317.27 74.19 Z M 346.95 71.21 L 346.95 68.57 L 352.37 68.57 L 352.37 71.21 L 346.95 71.21 Z M 346.95 65.91 L 346.95 63.25 L 352.37 63.25 L 352.37 65.91 L 346.95 65.91 Z M 346.95 60.78 L 346.95 58.2 L 352.37 58.2 L 352.37 60.78 L 346.95 60.78 Z M 346.95 55.71 L 346.95 53.07 L 352.37 53.07 L 352.37 55.71 L 346.95 55.71 Z M 346.95 50.41 L 346.95 47.76 L 352.37 47.76 L 352.37 50.41 L 346.95 50.41 Z M 307.57 50.41 L 307.57 47.76 L 313.02 47.76 L 313.02 50.41 L 307.57 50.41 Z M 307.57 55.71 L 307.57 53.07 L 313.02 53.07 L 313.02 55.71 L 307.57 55.71 Z M 307.57 60.78 L 307.57 58.2 L 313.02 58.2 L 313.02 60.78 L 307.57 60.78 Z M 307.57 65.91 L 307.57 63.25 L 313.02 63.25 L 313.02 65.91 L 307.57 65.91 Z M 307.57 71.21 L 307.57 68.57 L 313.02 68.57 L 313.02 71.21 L 307.57 71.21 Z M 318.54 42.25 L 318.54 36.8 L 321.17 36.8 L 321.17 42.25 L 318.54 42.25 Z M 323.81 42.25 L 323.81 36.8 L 326.46 36.8 L 326.46 42.25 L 323.81 42.25 Z M 328.91 42.25 L 328.91 36.8 L 331.52 36.8 L 331.52 42.25 L 328.91 42.25 Z M 333.97 42.25 L 333.97 36.8 L 336.59 36.8 L 336.59 42.25 L 333.97 42.25 Z M 339.22 42.25 L 339.22 36.8 L 341.87 36.8 L 341.87 42.25 L 339.22 42.25 Z M 339.22 81.6 L 339.22 76.09 L 341.87 76.09 L 341.87 81.6 L 339.22 81.6 Z M 333.97 81.6 L 333.97 76.09 L 336.59 76.09 L 336.59 81.6 L 333.97 81.6 Z M 328.91 81.6 L 328.91 76.09 L 331.52 76.09 L 331.52 81.6 L 328.91 81.6 Z M 323.81 81.6 L 323.81 76.09 L 326.46 76.09 L 326.46 81.6 L 323.81 81.6 Z M 318.54 81.6 L 318.54 76.09 L 321.17 76.09 L 321.17 81.6 L 318.54 81.6 Z" fill="#4495d1" stroke="none" pointer-events="none"/><g transform="translate(-0.5 -0.5)scale(0.9999999999999999)"><switch><foreignObject pointer-events="none" width="101%" height="101%" requiredFeatures="http://www.w3.org/TR/SVG11/feature#Extensibility" style="overflow: visible; text-align: left;"><div xmlns="http://www.w3.org/1999/xhtml" style="display: flex; align-items: unsafe center; justify-content: unsafe center; width: 58px; height: 1px; padding-top: 22px; margin-left: 301px;"><div data-drawio-colors="color: rgb(0, 0, 0); " style="box-sizing: border-box; font-size: 0px; text-align: center;"><div style="display: inline-block; font-size: 12px; font-family: Helvetica; color: rgb(0, 0, 0); line-height: 1.2; pointer-events: none; white-space: normal; overflow-wrap: normal;">CPU</div></div></div></foreignObject><text x="330" y="25" fill="rgb(0, 0, 0)" font-family="Helvetica" font-size="12px" text-anchor="middle">CPU</text></switch></g><path d="M 409.97 160 Q 409.97 160 377.84 160" fill="none" stroke="rgb(0, 0, 0)" stroke-miterlimit="10" pointer-events="none"/><path d="M 371.09 160 L 380.09 155.5 L 377.84 160 L 380.09 164.5 Z" fill="rgb(0, 0, 0)" stroke="rgb(0, 0, 0)" stroke-miterlimit="10" pointer-events="none"/><rect x="409.97" y="140" width="120" height="40" fill="rgb(255, 255, 255)" stroke="rgb(0, 0, 0)" pointer-events="none"/><g transform="translate(-0.5 -0.5)scale(0.9999999999999999)"><switch><foreignObject pointer-events="none" width="101%" height="101%" requiredFeatures="http://www.w3.org/TR/SVG11/feature#Extensibility" style="overflow: visible; text-align: left;"><div xmlns="http://www.w3.org/1999/xhtml" style="display: flex; align-items: unsafe center; justify-content: unsafe center; width: 118px; height: 1px; padding-top: 160px; margin-left: 411px;"><div data-drawio-colors="color: rgb(0, 0, 0); " style="box-sizing: border-box; font-size: 0px; text-align: center;"><div style="display: inline-block; font-size: 12px; font-family: Helvetica; color: rgb(0, 0, 0); line-height: 1.2; pointer-events: none; white-space: normal; overflow-wrap: normal;">I/O 요청</div></div></div></foreignObject><text x="470" y="164" fill="rgb(0, 0, 0)" font-family="Helvetica" font-size="12px" text-anchor="middle">I/O 요청</text></switch></g><path d="M 409.97 200 Q 409.97 200 377.84 200" fill="none" stroke="rgb(0, 0, 0)" stroke-miterlimit="10" pointer-events="none"/><path d="M 371.09 200 L 380.09 195.5 L 377.84 200 L 380.09 204.5 Z" fill="rgb(0, 0, 0)" stroke="rgb(0, 0, 0)" stroke-miterlimit="10" pointer-events="none"/><rect x="409.97" y="180" width="120" height="40" fill="rgb(255, 255, 255)" stroke="rgb(0, 0, 0)" pointer-events="none"/><g transform="translate(-0.5 -0.5)scale(0.9999999999999999)"><switch><foreignObject pointer-events="none" width="101%" height="101%" requiredFeatures="http://www.w3.org/TR/SVG11/feature#Extensibility" style="overflow: visible; text-align: left;"><div xmlns="http://www.w3.org/1999/xhtml" style="display: flex; align-items: unsafe center; justify-content: unsafe center; width: 118px; height: 1px; padding-top: 200px; margin-left: 411px;"><div data-drawio-colors="color: rgb(0, 0, 0); " style="box-sizing: border-box; font-size: 0px; text-align: center;"><div style="display: inline-block; font-size: 12px; font-family: Helvetica; color: rgb(0, 0, 0); line-height: 1.2; pointer-events: none; white-space: normal; overflow-wrap: normal;">자식 프로세스 생성</div></div></div></foreignObject><text x="470" y="204" fill="rgb(0, 0, 0)" font-family="Helvetica" font-size="12px" text-anchor="middle">자식 프로세스 생성</text></switch></g><path d="M 409.97 240 Q 409.97 240 377.84 240" fill="none" stroke="rgb(0, 0, 0)" stroke-miterlimit="10" pointer-events="none"/><path d="M 371.09 240 L 380.09 235.5 L 377.84 240 L 380.09 244.5 Z" fill="rgb(0, 0, 0)" stroke="rgb(0, 0, 0)" stroke-miterlimit="10" pointer-events="none"/><rect x="409.97" y="220" width="120" height="40" fill="rgb(255, 255, 255)" stroke="rgb(0, 0, 0)" pointer-events="none"/><g transform="translate(-0.5 -0.5)scale(0.9999999999999999)"><switch><foreignObject pointer-events="none" width="101%" height="101%" requiredFeatures="http://www.w3.org/TR/SVG11/feature#Extensibility" style="overflow: visible; text-align: left;"><div xmlns="http://www.w3.org/1999/xhtml" style="display: flex; align-items: unsafe center; justify-content: unsafe center; width: 118px; height: 1px; padding-top: 240px; margin-left: 411px;"><div data-drawio-colors="color: rgb(0, 0, 0); " style="box-sizing: border-box; font-size: 0px; text-align: center;"><div style="display: inline-block; font-size: 12px; font-family: Helvetica; color: rgb(0, 0, 0); line-height: 1.2; pointer-events: none; white-space: normal; overflow-wrap: normal;">인터럽트 대기</div></div></div></foreignObject><text x="470" y="244" fill="rgb(0, 0, 0)" font-family="Helvetica" font-size="12px" text-anchor="middle">인터럽트 대기</text></switch></g><path d="M 352.37 59.16 L 560 59.16 L 560 160 L 537.84 160" fill="none" stroke="rgb(0, 0, 0)" stroke-miterlimit="10" pointer-events="none"/><path d="M 531.09 160 L 540.09 155.5 L 537.84 160 L 540.09 164.5 Z" fill="rgb(0, 0, 0)" stroke="rgb(0, 0, 0)" stroke-miterlimit="10" pointer-events="none"/><path d="M 352.37 59.16 L 560 59.16 L 560 200 L 537.84 200" fill="none" stroke="rgb(0, 0, 0)" stroke-miterlimit="10" pointer-events="none"/><path d="M 531.09 200 L 540.09 195.5 L 537.84 200 L 540.09 204.5 Z" fill="rgb(0, 0, 0)" stroke="rgb(0, 0, 0)" stroke-miterlimit="10" pointer-events="none"/><path d="M 352.37 59.16 L 560 59.16 L 560 240 L 537.84 240" fill="none" stroke="rgb(0, 0, 0)" stroke-miterlimit="10" pointer-events="none"/><path d="M 531.09 240 L 540.09 235.5 L 537.84 240 L 540.09 244.5 Z" fill="rgb(0, 0, 0)" stroke="rgb(0, 0, 0)" stroke-miterlimit="10" pointer-events="none"/><path d="M 229.97 165.38 Q 229.97 165.38 177.81 169.4" fill="none" stroke="rgb(0, 0, 0)" stroke-miterlimit="10" pointer-events="none"/><path d="M 171.08 169.91 L 179.71 164.74 L 177.81 169.4 L 180.4 173.71 Z" fill="rgb(0, 0, 0)" stroke="rgb(0, 0, 0)" stroke-miterlimit="10" pointer-events="none"/><rect x="229.97" y="140" width="140" height="40" fill="rgb(255, 255, 255)" stroke="rgb(0, 0, 0)" pointer-events="none"/><g transform="translate(-0.5 -0.5)scale(0.9999999999999999)"><switch><foreignObject pointer-events="none" width="101%" height="101%" requiredFeatures="http://www.w3.org/TR/SVG11/feature#Extensibility" style="overflow: visible; text-align: left;"><div xmlns="http://www.w3.org/1999/xhtml" style="display: flex; align-items: unsafe center; justify-content: unsafe center; width: 138px; height: 1px; padding-top: 160px; margin-left: 231px;"><div data-drawio-colors="color: rgb(0, 0, 0); " style="box-sizing: border-box; font-size: 0px; text-align: center;"><div style="display: inline-block; font-size: 12px; font-family: Helvetica; color: rgb(0, 0, 0); line-height: 1.2; pointer-events: none; white-space: normal; overflow-wrap: normal;">I/O 대기 큐</div></div></div></foreignObject><text x="300" y="164" fill="rgb(0, 0, 0)" font-family="Helvetica" font-size="12px" text-anchor="middle">I/O 대기 큐</text></switch></g><path d="M 229.97 200 Q 229.97 200 177.84 200" fill="none" stroke="rgb(0, 0, 0)" stroke-miterlimit="10" pointer-events="none"/><path d="M 171.09 200 L 180.09 195.5 L 177.84 200 L 180.09 204.5 Z" fill="rgb(0, 0, 0)" stroke="rgb(0, 0, 0)" stroke-miterlimit="10" pointer-events="none"/><rect x="229.97" y="180" width="140" height="40" fill="rgb(255, 255, 255)" stroke="rgb(0, 0, 0)" pointer-events="none"/><g transform="translate(-0.5 -0.5)scale(0.9999999999999999)"><switch><foreignObject pointer-events="none" width="101%" height="101%" requiredFeatures="http://www.w3.org/TR/SVG11/feature#Extensibility" style="overflow: visible; text-align: left;"><div xmlns="http://www.w3.org/1999/xhtml" style="display: flex; align-items: unsafe center; justify-content: unsafe center; width: 138px; height: 1px; padding-top: 200px; margin-left: 231px;"><div data-drawio-colors="color: rgb(0, 0, 0); " style="box-sizing: border-box; font-size: 0px; text-align: center;"><div style="display: inline-block; font-size: 12px; font-family: Helvetica; color: rgb(0, 0, 0); line-height: 1.2; pointer-events: none; white-space: normal; overflow-wrap: normal;">자식 프로세스 종료 대기 큐</div></div></div></foreignObject><text x="300" y="204" fill="rgb(0, 0, 0)" font-family="Helvetica" font-size="12px" text-anchor="middle">자식 프로세스 종료 대기 큐</text></switch></g><path d="M 229.97 234.62 Q 229.97 234.62 177.81 230.6" fill="none" stroke="rgb(0, 0, 0)" stroke-miterlimit="10" pointer-events="none"/><path d="M 171.08 230.09 L 180.4 226.29 L 177.81 230.6 L 179.71 235.26 Z" fill="rgb(0, 0, 0)" stroke="rgb(0, 0, 0)" stroke-miterlimit="10" pointer-events="none"/><rect x="229.97" y="220" width="140" height="40" fill="rgb(255, 255, 255)" stroke="rgb(0, 0, 0)" pointer-events="none"/><g transform="translate(-0.5 -0.5)scale(0.9999999999999999)"><switch><foreignObject pointer-events="none" width="101%" height="101%" requiredFeatures="http://www.w3.org/TR/SVG11/feature#Extensibility" style="overflow: visible; text-align: left;"><div xmlns="http://www.w3.org/1999/xhtml" style="display: flex; align-items: unsafe center; justify-content: unsafe center; width: 138px; height: 1px; padding-top: 240px; margin-left: 231px;"><div data-drawio-colors="color: rgb(0, 0, 0); " style="box-sizing: border-box; font-size: 0px; text-align: center;"><div style="display: inline-block; font-size: 12px; font-family: Helvetica; color: rgb(0, 0, 0); line-height: 1.2; pointer-events: none; white-space: normal; overflow-wrap: normal;">인터럽트 대기 큐</div></div></div></foreignObject><text x="300" y="244" fill="rgb(0, 0, 0)" font-family="Helvetica" font-size="12px" text-anchor="middle">인터럽트 대기 큐</text></switch></g><path d="M 49.97 200 L 10 200 L 10 59.58 L 42.1 59.58" fill="none" stroke="rgb(0, 0, 0)" stroke-miterlimit="10" pointer-events="none"/><path d="M 48.85 59.58 L 39.85 64.08 L 42.1 59.58 L 39.85 55.08 Z" fill="rgb(0, 0, 0)" stroke="rgb(0, 0, 0)" stroke-miterlimit="10" pointer-events="none"/><rect x="49.97" y="140" width="120" height="120" fill="rgb(255, 255, 255)" stroke="rgb(0, 0, 0)" pointer-events="none"/><g transform="translate(-0.5 -0.5)scale(0.9999999999999999)"><switch><foreignObject pointer-events="none" width="101%" height="101%" requiredFeatures="http://www.w3.org/TR/SVG11/feature#Extensibility" style="overflow: visible; text-align: left;"><div xmlns="http://www.w3.org/1999/xhtml" style="display: flex; align-items: unsafe center; justify-content: unsafe center; width: 118px; height: 1px; padding-top: 200px; margin-left: 51px;"><div data-drawio-colors="color: rgb(0, 0, 0); " style="box-sizing: border-box; font-size: 0px; text-align: center;"><div style="display: inline-block; font-size: 12px; font-family: Helvetica; color: rgb(0, 0, 0); line-height: 1.2; pointer-events: none; white-space: normal; overflow-wrap: normal;">I/O 완료<br />자식 프로세스 종료<br />인터럽트 발생</div></div></div></foreignObject><text x="110" y="204" fill="rgb(0, 0, 0)" font-family="Helvetica" font-size="12px" text-anchor="middle">I/O 완료...</text></switch></g><path d="M 559.97 59.5 Q 559.97 59.5 642.1 59.5" fill="none" stroke="rgb(0, 0, 0)" stroke-miterlimit="10" pointer-events="none"/><path d="M 648.85 59.5 L 639.85 64 L 642.1 59.5 L 639.85 55 Z" fill="rgb(0, 0, 0)" stroke="rgb(0, 0, 0)" stroke-miterlimit="10" pointer-events="none"/></g><switch><g requiredFeatures="http://www.w3.org/TR/SVG11/feature#Extensibility"/><a transform="translate(0,-5)" xlink:href="https://www.drawio.com/doc/faq/svg-export-text-problems" target="_blank"><text text-anchor="middle" font-size="10px" x="50%" y="100%">Text is not SVG - cannot display</text></a></switch></svg>